<svg width="250" height="250" viewBox="0 0 250 250" fill="none" xmlns="http://www.w3.org/2000/svg">
<rect width="250" height="250" fill="white"/>
<rect id="Rectangle 1" width="250" height="250" rx="42" fill="#6047FE"/>
<g id="octopus-svgrepo-com 1" clip-path="url(#clip0_0_1)">
<g id="SVGRepo_iconCarrier">
<path id="Vector" d="M164.438 201.36C161.753 201.36 159.118 200.804 156.703 199.7C144.275 194.021 136.208 184.469 130.318 177.495C128.589 175.447 126.35 172.797 124.893 171.506C123.436 172.797 121.198 175.447 119.469 177.495C113.579 184.469 105.513 194.021 93.0836 199.7C88.9156 201.605 84.0871 201.88 79.4868 200.475C74.4937 198.95 70.433 195.655 68.3454 191.433C64.8031 184.27 67.1167 177.021 74.384 172.515C76.0701 171.469 77.8725 170.296 79.5707 169.18C73.254 170.612 65.8483 171.722 60.5406 171.722C50.317 171.722 42 164.547 42 155.728C42 146.908 50.317 139.733 60.5406 139.733C70.116 139.733 81.4993 137.793 84.7318 132.35C86.68 129.07 84.7014 125.52 82.6983 123.121C75.4196 114.401 71.572 104.676 71.572 94.9996C71.5717 69.6353 95.4917 49 124.894 49C154.295 49 178.215 69.6353 178.215 94.9993C178.215 104.676 174.368 114.4 167.089 123.12C165.086 125.52 163.107 129.069 165.056 132.35C168.288 137.794 179.671 139.733 189.247 139.733C199.47 139.733 207.787 146.908 207.787 155.727C207.787 164.547 199.47 171.722 189.247 171.722C183.939 171.722 176.533 170.612 170.217 169.18C171.914 170.296 173.716 171.469 175.403 172.515C182.671 177.021 184.984 184.27 181.442 191.433C179.354 195.655 175.293 198.95 170.3 200.475C168.365 201.067 166.388 201.36 164.438 201.36Z" fill="white"/>
<path id="Vector_2" d="M124.894 49V171.506C126.351 172.797 128.589 175.447 130.318 177.495C136.208 184.469 144.274 194.021 156.703 199.7C159.118 200.803 161.753 201.36 164.438 201.36C166.389 201.36 168.365 201.067 170.3 200.475C175.293 198.951 179.354 195.655 181.442 191.434C182.542 189.209 183.077 186.977 183.075 184.82C183.069 180.033 180.414 175.622 175.403 172.515C173.717 171.469 171.914 170.296 170.217 169.18C176.533 170.612 183.939 171.722 189.247 171.722C199.471 171.722 207.788 164.547 207.788 155.728C207.788 146.908 199.47 139.733 189.247 139.733C179.671 139.733 168.288 137.793 165.056 132.35C164.493 131.402 164.258 130.431 164.256 129.472C164.254 127.114 165.665 124.827 167.089 123.121C174.368 114.401 178.215 104.676 178.215 94.9996C178.216 69.6353 154.295 49 124.894 49Z" fill="white"/>
<g id="Vector_3">
<path d="M99.8053 100.304C99.8053 96.8778 102.988 94.1035 106.9 94.1035C110.817 94.1035 114 96.8778 114 100.304C114 103.729 110.817 106.506 106.9 106.506C102.988 106.505 99.8053 103.729 99.8053 100.304Z" fill="#333333"/>
<path d="M149.982 100.304C149.982 96.8526 146.778 94.0551 142.833 94.0551C138.883 94.0551 135.679 96.8526 135.679 100.304C135.679 103.755 138.883 106.552 142.833 106.552C146.778 106.552 149.982 103.755 149.982 100.304Z" fill="#333333"/>
</g>
</g>
</g>
<defs>
<clipPath id="clip0_0_1">
<rect width="166" height="153" fill="white" transform="translate(42 48)"/>
</clipPath>
</defs>
</svg>
